<svg preserveAspectRatio="none" width="100%" height="100%" overflow="visible" style="display: block;" viewBox="0 0 8 8" fill="none" xmlns="http://www.w3.org/2000/svg">
<path id="Vector" d="M1.08 1.08333C0.386667 1.77667 0 2.69667 0 3.67C0 4.64333 0.386667 5.56334 1.08 6.25667C1.77333 6.95 2.73333 7.32333 3.68 7.32333C4.62667 7.32333 5.56 6.96333 6.26667 6.25667C7.69333 4.83 7.69333 2.49667 6.26667 1.07C4.84 -0.356667 2.50667 -0.356667 1.08 1.07V1.08333ZM4.85333 4.85667C4.2 5.51 3.14667 5.51 2.49333 4.85667C2.17333 4.53667 2 4.12333 2 3.68333C2 3.24333 2.17333 2.81667 2.49333 2.51C2.81333 2.20333 3.24 2.01667 3.66667 2.01667C4.09333 2.01667 4.52 2.17667 4.84 2.51C5.49333 3.16333 5.49333 4.21667 4.84 4.87L4.85333 4.85667Z" fill="var(--fill-0, #3E234B)"/>
</svg>
