<svg width="16" height="16" viewBox="0 0 16 16" fill="none" xmlns="http://www.w3.org/2000/svg">
<path d="M1.6665 8C1.6665 5.01444 1.6665 3.52166 2.594 2.59416C3.5215 1.66667 5.01428 1.66667 7.99984 1.66667C10.9854 1.66667 12.4782 1.66667 13.4057 2.59416C14.3332 3.52166 14.3332 5.01444 14.3332 8C14.3332 10.9855 14.3332 12.4783 13.4057 13.4059C12.4782 14.3333 10.9854 14.3333 7.99984 14.3333C5.01428 14.3333 3.5215 14.3333 2.594 13.4059C1.6665 12.4783 1.6665 10.9855 1.6665 8Z" stroke="#ECE9ED" stroke-linejoin="round"/>
<path d="M11 8C11 9.65687 9.65687 11 8 11C6.34315 11 5 9.65687 5 8C5 6.34315 6.34315 5 8 5C9.65687 5 11 6.34315 11 8Z" stroke="#ECE9ED"/>
<path d="M11.6728 4.33333H11.666" stroke="#ECE9ED" stroke-width="1.33333" stroke-linecap="round" stroke-linejoin="round"/>
</svg>
